<?xml version="1.0" encoding="UTF-8"?>
<!-- Created with Inkscape (http://www.inkscape.org/) -->
<svg width="100" height="100" version="1.1" viewBox="0 0 26.458 26.458" xml:space="preserve" xmlns="http://www.w3.org/2000/svg"><g transform="translate(75.807 -50.269)"><path d="m-63.872 74.409c-0.27267-0.11792-0.57185-0.41331-0.6458-0.63761-0.03278-0.09943-0.13912-0.61628-0.23632-1.1486-0.0972-0.53229-0.19665-0.9858-0.22101-1.0078-0.02435-0.022-0.18992-0.08679-0.36792-0.144-0.178-0.0572-0.54766-0.20695-0.82146-0.33278-0.49505-0.2275-0.49866-0.22817-0.64727-0.11924-0.08219 0.06025-0.49118 0.34392-0.90887 0.63039-0.67152 0.46056-0.79506 0.52381-1.0673 0.54638-0.52946 0.04391-0.68743-0.04727-1.5415-0.88975-0.87406-0.8622-0.98948-1.0559-0.94546-1.5867 0.02356-0.28414 0.08232-0.39579 0.61055-1.1602 0.32146-0.46519 0.60399-0.8775 0.62785-0.91624 0.02385-0.03874-0.05838-0.29184-0.18273-0.56246-0.12436-0.27062-0.2729-0.63767-0.33011-0.81566-0.0572-0.178-0.12324-0.3448-0.14675-0.37068-0.02352-0.02588-0.47591-0.12494-1.0053-0.22014-1.1777-0.21178-1.2816-0.24502-1.5131-0.48417-0.32872-0.33965-0.3665-0.51392-0.3665-1.6906 0-1.1767 0.03778-1.351 0.3665-1.6906 0.23145-0.23914 0.33535-0.27239 1.5131-0.48417 0.52942-0.0952 0.98181-0.19426 1.0053-0.22014 0.02352-0.02587 0.08955-0.19268 0.14675-0.37068 0.0572-0.178 0.20575-0.54505 0.33011-0.81567 0.12436-0.27062 0.20659-0.52373 0.18273-0.56246-0.02386-0.03874-0.3073-0.45238-0.62988-0.9192-0.56356-0.81556-0.58741-0.86283-0.60941-1.2083-0.03157-0.49566 0.04889-0.62952 0.8929-1.4855 0.85034-0.86238 1.0318-0.9736 1.5364-0.94148 0.34256 0.02181 0.39819 0.04886 1.1229 0.54587 0.41934 0.28761 0.82969 0.57221 0.91188 0.63246 0.14861 0.10893 0.15222 0.10826 0.64727-0.11924 0.2738-0.12583 0.64346-0.27558 0.82146-0.33278 0.178-0.0572 0.34356-0.122 0.36792-0.144 0.02435-0.022 0.12381-0.47551 0.22101-1.0078 0.21656-1.186 0.24759-1.2826 0.48605-1.5134 0.33965-0.32872 0.51392-0.3665 1.6906-0.3665 1.1767 0 1.351 0.03778 1.6906 0.3665 0.23846 0.23079 0.26949 0.3274 0.48605 1.5134 0.0972 0.53229 0.19665 0.9858 0.22101 1.0078 0.02435 0.022 0.18992 0.0868 0.36792 0.144 0.178 0.0572 0.54505 0.20575 0.81567 0.3301 0.27062 0.12436 0.52373 0.20659 0.56246 0.18274 0.03874-0.02385 0.45238-0.3073 0.9192-0.62988 0.8151-0.56324 0.863-0.58742 1.2077-0.60936 0.50661-0.03226 0.68713 0.07984 1.5623 0.9702 0.81385 0.82793 0.9073 0.99194 0.86384 1.516-0.02273 0.27398-0.08702 0.39545-0.60987 1.1521-0.32146 0.46519-0.60399 0.8775-0.62785 0.91624-0.02385 0.03874 0.05838 0.29184 0.18273 0.56246 0.12436 0.27062 0.2729 0.63767 0.3301 0.81567s0.122 0.34356 0.144 0.36792c0.022 0.02435 0.47551 0.12381 1.0078 0.22101 1.186 0.21656 1.2826 0.24759 1.5134 0.48605 0.32872 0.33965 0.3665 0.51392 0.3665 1.6906 0 1.1767-0.03778 1.351-0.3665 1.6906-0.23079 0.23846-0.3274 0.26949-1.5134 0.48605-0.53229 0.0972-0.9858 0.19665-1.0078 0.22101-0.022 0.02435-0.08679 0.18992-0.144 0.36792-0.0572 0.178-0.20575 0.54505-0.3301 0.81566-0.12436 0.27062-0.20659 0.52373-0.18273 0.56246 0.02385 0.03874 0.3073 0.45237 0.62988 0.9192 0.56324 0.8151 0.58742 0.863 0.60936 1.2077 0.03202 0.50279-0.07985 0.68516-0.94157 1.5348-0.85595 0.844-0.9898 0.92446-1.4855 0.8929-0.34548-0.02199-0.39276-0.04584-1.2083-0.6094-0.46682-0.32258-0.88046-0.60602-0.9192-0.62988-0.03874-0.02385-0.29184 0.05838-0.56246 0.18273-0.27062 0.12436-0.63767 0.27291-0.81567 0.33011-0.178 0.0572-0.34356 0.122-0.36792 0.144-0.02435 0.022-0.12382 0.47551-0.22101 1.0078-0.21656 1.186-0.24759 1.2826-0.48605 1.5134-0.34116 0.33019-0.51217 0.36675-1.7034 0.3642-0.82659-0.0017-1.1235-0.02293-1.2817-0.09137zm2.3751-0.81873c0.11417-0.11417 0.11242-0.10708 0.33312-1.353 0.10319-0.58254 0.22087-1.1121 0.26153-1.1768 0.04768-0.0759 0.29064-0.18856 0.68432-0.31731 0.33572-0.10979 0.83464-0.315 1.1087-0.45603 0.27406-0.14102 0.56142-0.25641 0.63856-0.25641 0.08301 0 0.53895 0.27616 1.1172 0.67669 0.62042 0.42974 1.0316 0.67669 1.1267 0.67669 0.21653 0 1.5343-1.3162 1.5343-1.5325 0-0.09737-0.24179-0.50059-0.67669-1.1285-0.40053-0.57824-0.67669-1.0342-0.67669-1.1172 0-0.07714 0.11538-0.36449 0.25641-0.63856 0.14102-0.27406 0.34624-0.77298 0.45603-1.1087 0.12889-0.39412 0.24132-0.63651 0.31731-0.68409 0.06472-0.04053 0.59431-0.15792 1.1768-0.26088 1.2382-0.21884 1.2378-0.21873 1.353-0.334 0.1304-0.1304 0.1304-2.0307 0-2.1611-0.11527-0.11527-0.11484-0.11516-1.353-0.334-0.58254-0.10296-1.1121-0.22035-1.1768-0.26088-0.07599-0.04758-0.18842-0.28997-0.31731-0.68409-0.10979-0.33572-0.315-0.83464-0.45603-1.1087-0.14102-0.27407-0.25641-0.56142-0.25641-0.63856 0-0.08301 0.27616-0.53895 0.67669-1.1172 0.42974-0.62042 0.67669-1.0316 0.67669-1.1267 0-0.21653-1.3162-1.5343-1.5325-1.5343-0.09737 0-0.50059 0.24179-1.1285 0.67669-0.57824 0.40053-1.0342 0.67669-1.1172 0.67669-0.07714 0-0.36449-0.11538-0.63856-0.25641-0.27406-0.14102-0.77298-0.34624-1.1087-0.45603-0.39241-0.12833-0.63704-0.24165-0.68499-0.31731-0.04102-0.06472-0.15806-0.59431-0.26008-1.1768-0.21504-1.2279-0.2171-1.2362-0.33389-1.353-0.1304-0.1304-2.0307-0.1304-2.1611 0-0.11417 0.11417-0.11242 0.10708-0.33312 1.353-0.10319 0.58254-0.22081 1.1121-0.26138 1.1768-0.04648 0.07414-0.26731 0.17968-0.59688 0.28524-0.28771 0.09215-0.79038 0.29737-1.117 0.45603-0.32666 0.15866-0.65336 0.28847-0.726 0.28847-0.07263 0-0.57169-0.30451-1.109-0.67669-0.62786-0.4349-1.0311-0.67669-1.1285-0.67669-0.21627 0-1.5325 1.3178-1.5325 1.5343 0 0.09507 0.24695 0.50623 0.67669 1.1267 0.40053 0.57824 0.67669 1.0342 0.67669 1.1172 0 0.07714-0.11538 0.36449-0.25641 0.63856-0.14102 0.27406-0.34624 0.77298-0.45603 1.1087-0.12875 0.39368-0.2414 0.63665-0.31731 0.68432-0.06472 0.04065-0.59431 0.15834-1.1768 0.26153-1.246 0.2207-1.2389 0.21895-1.353 0.33312-0.1334 0.1334-0.1301 2.031 0.0038 2.1648 0.11083 0.11083 0.08742 0.10519 1.3787 0.33262 0.56636 0.09975 1.0827 0.21531 1.1474 0.25678 0.07537 0.04829 0.18948 0.29494 0.31731 0.6858 0.10979 0.33572 0.315 0.83464 0.45603 1.1087 0.14102 0.27406 0.25641 0.56142 0.25641 0.63856 0 0.08301-0.27616 0.53895-0.67669 1.1172-0.42974 0.62042-0.67669 1.0316-0.67669 1.1267 0 0.21653 1.3162 1.5343 1.5325 1.5343 0.09738 0 0.50059-0.24179 1.1285-0.67669 0.53732-0.37218 1.0364-0.67669 1.109-0.67669 0.07263 0 0.39933 0.12981 0.726 0.28848 0.32666 0.15866 0.82934 0.36388 1.117 0.45603 0.32957 0.10557 0.5504 0.21109 0.59688 0.28524 0.04057 0.06472 0.1582 0.59431 0.26138 1.1768 0.22069 1.246 0.21895 1.2389 0.33312 1.353 0.1304 0.1304 2.0307 0.1304 2.1611 0zm-2.0514-5.3009c-1.9733-0.44162-3.4154-1.8993-3.8196-3.861-0.38061-1.8471 0.42676-3.8423 1.993-4.925 1.6735-1.1569 3.8318-1.1803 5.4992-0.05976 0.59555 0.40024 0.94499 0.74729 1.353 1.3438 1.0857 1.5871 1.0917 3.8187 0.01452 5.405-0.69021 1.0164-1.6104 1.6815-2.7927 2.0186-0.57967 0.16526-1.6868 0.20389-2.2475 0.07842zm2.2724-0.94756c1.2027-0.41513 2.1333-1.352 2.5609-2.5781 0.14807-0.42461 0.16396-0.54716 0.16396-1.2645 0-0.71739-0.01588-0.83994-0.16396-1.2645-0.56568-1.6221-1.9587-2.6868-3.6381-2.7805-0.64868-0.03619-1.1227 0.0375-1.6953 0.26356-1.1245 0.44395-1.9836 1.3473-2.3931 2.5164-0.14978 0.42758-0.16473 0.54357-0.16312 1.2651 0.0015 0.71303 0.01849 0.84257 0.1649 1.2651 0.47948 1.3837 1.5891 2.3837 3.0092 2.7118 0.59026 0.13637 1.5425 0.07704 2.1547-0.13425z"/></g></svg>
