<?xml version="1.0" encoding="UTF-8"?>
<!-- Created with Inkscape (http://www.inkscape.org/) -->
<svg width="100" height="100" version="1.1" viewBox="0 0 26.458 26.458" xml:space="preserve" xmlns="http://www.w3.org/2000/svg"><g transform="translate(75.807 -50.269)"><path d="m-62.943 76.708c-1.1606-0.13336-2.1839-0.88453-2.6563-1.95-0.15927-0.35921-0.27773-0.87203-0.27773-1.2023v-0.12678h6.6015v0.12678c0 0.192-0.05493 0.53251-0.1259 0.78044-0.29315 1.0241-1.0806 1.8565-2.0879 2.2071-0.45725 0.15916-0.98342 0.21879-1.4537 0.16475zm-9.7574-4.952c-0.7216-0.0908-1.3022-0.64693-1.4279-1.3675-0.05036-0.28879-0.03296-0.52226 0.05967-0.80073 0.09929-0.29848 0.16879-0.39193 0.77771-1.0458 0.60844-0.65331 1.0002-1.201 1.3436-1.8786 0.45613-0.89982 0.76287-1.9274 0.93523-3.133 0.10479-0.73298 0.14468-1.3015 0.17426-2.4841 0.01061-0.42394 0.03158-0.8582 0.048-0.99408 0.20784-1.7194 0.91746-3.2681 2.0785-4.5361 1.0849-1.1849 2.5702-2.0561 4.1691-2.4454l0.30212-0.07357 0.0089-0.65628c8e-3 -0.58748 0.01318-0.67293 0.04975-0.81507 0.18263-0.70985 0.7841-1.2097 1.5086-1.2537 0.7911-0.04805 1.5 0.47575 1.7025 1.258 0.03553 0.13721 0.04098 0.22757 0.04888 0.81071l0.0089 0.65628 0.30212 0.07357c2.3748 0.57828 4.3757 2.1551 5.4422 4.2888 0.42406 0.84836 0.69241 1.7485 0.80561 2.7024 0.01693 0.14257 0.0377 0.57186 0.04812 0.99408 0.02878 1.1659 0.06925 1.7421 0.17367 2.4725 0.24813 1.7357 0.76654 3.097 1.6043 4.2128 0.25612 0.34112 0.41425 0.5255 0.84186 0.9816 0.37428 0.39922 0.44066 0.48363 0.53587 0.68149 0.29184 0.60647 0.177 1.335-0.28993 1.8394-0.2081 0.22477-0.47105 0.38093-0.81044 0.48129-0.11022 0.0326-0.60525 0.0343-10.25 0.0363-5.5736 1e-3 -10.16-1e-3 -10.192-5e-3zm18.193-2.4876c0-6e-3 -0.07534-0.11558-0.16742-0.24398-0.53424-0.74502-1.0453-1.7675-1.3593-2.7196-0.32869-0.99671-0.55416-2.1196-0.66247-3.2992-0.05329-0.58035-0.07098-0.92815-0.08838-1.7372-0.01391-0.64732-0.02497-0.85292-0.05757-1.0713-0.22622-1.5155-1.0082-2.8501-2.2132-3.7772-1.4998-1.1539-3.4971-1.4962-5.3057-0.90921-1.9181 0.62256-3.3669 2.1858-3.8421 4.1459-0.12156 0.50134-0.14409 0.7239-0.16351 1.6148-0.02223 1.02-0.05245 1.4887-0.14545 2.2553-0.26545 2.1883-0.9352 4.0623-1.9651 5.4986-0.0917 0.12788-0.16673 0.23724-0.16673 0.24302 0 6e-3 3.6308 0.0105 8.0685 0.0105s8.0684-5e-3 8.0685-0.0105z"/></g></svg>
