<?xml version="1.0" encoding="UTF-8"?>
<!-- Created with Inkscape (http://www.inkscape.org/) -->
<svg width="100" height="100" version="1.1" viewBox="0 0 26.458 26.458" xml:space="preserve" xmlns="http://www.w3.org/2000/svg"><g transform="translate(75.807 -50.269)"><path d="m-72.857 72.857c-0.45407-0.50175-0.01769-2.7063 0.87511-4.4211 0.66675-1.2806 2.1595-2.7844 3.3993-3.4245l0.92478-0.47746-0.8173-0.75668c-0.543-0.50272-0.97083-1.0684-1.2748-1.6855-0.43278-0.87874-0.45746-1.0121-0.45746-2.4721 0-1.4451 0.02842-1.6033 0.44702-2.4869 0.57857-1.2214 1.5878-2.2306 2.8091-2.8091 0.8748-0.4144 1.0509-0.44702 2.4136-0.44702 1.3627 0 1.5388 0.03262 2.4136 0.44702 1.2214 0.57857 2.2306 1.5878 2.8091 2.8091 0.41841 0.88327 0.44702 1.0422 0.44702 2.4836 0 1.4181-0.03244 1.6064-0.40993 2.3799-0.23826 0.48821-0.77066 1.2019-1.2714 1.7043l-0.86143 0.86434 0.56798 0.25561c0.81476 0.36667 2.1675 1.3946 2.3434 1.7807 0.20724 0.45485-0.05585 0.92478-0.51774 0.92478-0.19486 0-0.65638-0.24283-1.0443-0.54946-0.80569-0.63686-1.9346-1.1997-2.8121-1.402-0.78939-0.18198-2.5392-0.18198-3.3285 0-1.52 0.35042-3.0516 1.3707-4.0082 2.6701-0.74424 1.011-1.1465 2.0476-1.3428 3.4605-0.08181 0.58883-0.21399 1.1493-0.29372 1.2456-0.21539 0.25999-0.73385 0.21191-1.0104-0.09371zm10.076-9.3152c0.94508-0.42006 1.6026-1.0212 2.101-1.9209 0.37093-0.6696 0.41248-0.87151 0.41248-2.0045 0-1.4718-0.28494-2.2119-1.2064-3.1334-0.90665-0.90665-1.6678-1.2064-3.0634-1.2064-1.3859 0-2.2122 0.32225-3.0983 1.2083-0.83362 0.83362-1.1405 1.5606-1.2125 2.8722-0.05468 0.99583-0.01871 1.2366 0.28331 1.8963 0.45597 0.99597 1.0483 1.6508 1.9251 2.1279 1.2441 0.67711 2.5721 0.73235 3.8587 0.16051zm6.595 9.3279c-0.1758-0.19426-0.23169-0.53196-0.23169-1.3999v-1.1439h-1.1682c-0.95399 0-1.2107-0.04695-1.3999-0.25601-0.29097-0.32152-0.29501-0.64062-0.0117-0.92393 0.16519-0.16519 0.51392-0.21999 1.3999-0.21999h1.1799v-1.1799c0-1.2773 0.15903-1.6199 0.75196-1.6199 0.54036 0 0.64797 0.26039 0.64797 1.5679v1.2319h1.2567c1.186 0 1.2696 0.01969 1.486 0.34998 0.21243 0.32421 0.21243 0.37576 0 0.69997-0.21642 0.3303-0.30002 0.34998-1.486 0.34998h-1.2567v1.2319c0 0.77152-0.06278 1.2947-0.16799 1.3999-0.24739 0.2474-0.73559 0.20444-1.0003-0.08802z"/></g></svg>
