<?xml version="1.0" encoding="UTF-8"?>
<!-- Created with Inkscape (http://www.inkscape.org/) -->
<svg width="100" height="100" version="1.1" viewBox="0 0 26.458 26.458" xml:space="preserve" xmlns="http://www.w3.org/2000/svg"><g transform="translate(75.807 -50.269)"><path d="m-71.563 72.004c-0.37217-0.11436-0.62135-0.3248-0.81649-0.68957l-0.09827-0.18369v-15.306l0.09827-0.18369c0.15323-0.28644 0.31762-0.45736 0.56572-0.58824l0.22846-0.12052h18.161l0.22846 0.12052c0.24811 0.13089 0.41249 0.30181 0.56572 0.58824l0.09827 0.18369v15.306l-0.09827 0.18369c-0.15323 0.28644-0.31762 0.45736-0.56572 0.58825l-0.22846 0.12052-9.0138 0.0075c-4.9576 0.0041-9.064-0.0079-9.1253-0.02674zm3.3455-6.9642c1.4312-1.7302 2.6846-3.2336 2.7853-3.3408 0.23013-0.24475 0.47611-0.36101 0.76332-0.36076 0.41747 3.55e-4 0.48032 0.05311 1.9414 1.6297 1.6142 1.7418 1.7027 1.8065 2.1609 1.5809 0.09978-0.04915 0.37218-0.25244 0.60534-0.45176 0.59244-0.50646 0.77745-0.61907 1.0172-0.61907 0.10807 0 0.25976 0.03059 0.33709 0.06798 0.07882 0.0381 1.131 1.1351 2.3941 2.4961l2.2534 2.4281 0.01131-5.8278c0.01063-5.4778 0.0068-5.8374-0.06694-5.9878-0.04606-0.09423-0.14244-0.19206-0.23443-0.23801-0.14696-0.07342-0.6335-0.07803-8.2454-0.07809-8.9036-7.6e-5 -8.3066-0.0195-8.4869 0.27614-0.08912 0.14617-0.09006 0.20883-0.09022 6.006l-1.66e-4 5.8583 0.12628-0.14658c0.06943-0.08062 1.2972-1.5622 2.7284-3.2925zm10.18-3.0602c-1.1314-0.30428-1.8314-1.4758-1.5431-2.5827 0.29853-1.1461 1.4682-1.8531 2.5849-1.5623 1.1428 0.29765 1.853 1.4685 1.564 2.5781-0.30126 1.1566-1.4848 1.8683-2.6058 1.5668z"/></g></svg>
