<?xml version="1.0" encoding="UTF-8"?>
<!-- Created with Inkscape (http://www.inkscape.org/) -->
<svg width="100" height="100" version="1.1" viewBox="0 0 26.458 26.458" xml:space="preserve" xmlns="http://www.w3.org/2000/svg"><g transform="translate(75.807 -50.269)"><path d="m-73.209 76.62c-0.11624-0.05728-0.28808-0.20509-0.38189-0.32847-0.16343-0.21496-0.17025-0.25507-0.16345-0.9605 9e-3 -0.92156 0.15885-1.7953 0.47265-2.7539 1.2642-3.8618 4.5763-6.5457 8.6243-6.9887 1.0124-0.11078 4.066-0.05315 4.8665 0.09186 1.1974 0.2169 2.552 0.7397 3.5961 1.3879 2.6659 1.6551 4.4182 4.4783 4.7435 7.6422 0.09853 0.95846 0.06578 1.3114-0.14765 1.5912-0.35126 0.46052 0.5574 0.42551-11.002 0.4239-9.4959-0.0012-10.415-0.01047-10.608-0.10559zm19.718-2.0092c-7.46e-4 -0.04376-0.05541-0.32301-0.12145-0.62056-0.62184-2.8019-2.684-5.1133-5.3534-6.0005-1.0951-0.36395-1.3893-0.39609-3.6253-0.39609-1.7805 0-2.1435 0.01647-2.607 0.11829-3.278 0.72018-5.7347 3.1668-6.3963 6.3699-0.0541 0.26168-0.0983 0.50563-0.0983 0.54211 0 0.0457 2.8308 0.06633 9.1016 0.06633 7.2396 0 9.1013-0.01629 9.1002-0.07956zm-9.8003-10.137c-0.05251-0.01029-0.31028-0.05362-0.57283-0.0963-1.3614-0.2213-2.7152-0.93219-3.7544-1.9714-2.6592-2.6592-2.801-6.8484-0.32899-9.7206 1.7634-2.0488 4.6693-2.9005 7.3155-2.1441 1.1652 0.33311 2.2044 0.94615 3.0682 1.8099 2.7848 2.7848 2.7848 7.2699 0 10.055-1.1045 1.1045-2.5391 1.8157-4.1003 2.0329-0.44392 0.06174-1.3867 0.0819-1.6272 0.03478zm2.0536-2.1865c2.1346-0.62761 3.5781-2.4113 3.7172-4.5931 0.19401-3.0431-2.3444-5.5862-5.3797-5.3896-0.71945 0.04661-1.253 0.18544-1.8918 0.49221-2.9657 1.4243-3.8076 5.1917-1.7426 7.7979 0.70687 0.89213 1.8515 1.5629 3.0841 1.8072 0.48808 0.09675 1.709 0.0335 2.2128-0.11463z"/></g></svg>
