<?xml version="1.0" encoding="UTF-8"?>
<!-- Created with Inkscape (http://www.inkscape.org/) -->
<svg width="100" height="100" version="1.1" viewBox="0 0 26.458 26.458" xml:space="preserve" xmlns="http://www.w3.org/2000/svg"><g transform="translate(75.807 -50.269)"><path d="m-51.05 76.547c-0.1946-0.12562-1.6537-1.5341-3.2424-3.1299-1.5887-1.5958-2.9217-2.9015-2.9623-2.9015-0.04055 0-0.439 0.2467-0.88543 0.54822-1.8017 1.2169-3.6245 1.8032-5.883 1.8922-1.787 0.07045-3.1521-0.15562-4.719-0.78148-3.3353-1.3322-5.8819-4.2766-6.79-7.8506-0.33558-1.3209-0.36939-3.7565-0.07058-5.0849 1.5752-7.0031 8.9536-10.82 15.582-8.0606 1.8204 0.75785 3.7867 2.3619 4.8927 3.9914 1.2202 1.7978 1.8721 3.7474 1.9763 5.9108 0.13288 2.759-0.57639 5.0442-2.3518 7.5773-0.12725 0.18156 0.21733 0.56971 2.8792 3.2433 1.663 1.6704 3.0824 3.1529 3.1541 3.2946 0.2078 0.41055 0.15393 0.71529-0.19394 1.0971-0.4208 0.46185-0.92165 0.55367-1.3858 0.25406zm-11.284-5.9791c0.8777-0.20097 2.2488-0.81358 3.0493-1.3624 2.7754-1.9029 4.3306-5.2949 3.9279-8.5671-0.39831-3.2365-2.2259-5.8121-5.1278-7.2268-1.5541-0.75762-2.713-0.99303-4.4755-0.90914-2.4226 0.11531-4.2569 0.94579-6.0328 2.7314-0.89788 0.90278-1.1633 1.2616-1.6233 2.1952-0.81779 1.6595-1.0593 2.7679-0.9865 4.5271 0.06622 1.5994 0.26682 2.4597 0.85457 3.6651 1.3201 2.7073 3.9714 4.6592 6.96 5.1238 0.86139 0.13391 2.4522 0.05236 3.4542-0.17708z"/></g></svg>
